. 
 
http://www.torrenting.com          :     Once & For all ;)


               www . Torrenting . Com 

(((((((((((((= Enjoy No RAR releases =))))))))))))))))))))


...................................NFO:....................................

.                                                                
 @@@@@@@   @@@  @@@  @@@  @@@@@@@@  @@@@@@@   @@@@@@    @@@  @@@@@@@  @@@ @@@ 
 @@@@@@@@  @@@  @@@  @@@  @@@@@@@@  @@@@@@@@  @@@@@@@   @@@  @@@@@@@  @@@ @@@ 
 @@!  @@@  @@!  @@!  @@@  @@!       @@!  @@@  !@@       @@!    @@!    @@! !@@ 
 !@!  @!@  !@!  !@!  @!@  !@!       !@!  @!@  !@!       !@!    !@!    !@! @!! 
 @!@  !@!  !!@  @!@  !@!  @!!!:!    @!@!!@!   !!@@!!    !!@    @!!     !@!@!  
 !@!  !!!  !!!  !@!  !!!  !!!!!:    !!@!@!     !!@!!!   !!!    !!!      @!!!  
 !!:  !!!  !!:  :!:  !!:  !!:       !!: :!!        !:!  !!:    !!:      !!:   
 :!:  !:!  :!:   ::!!:!   :!:       :!:  !:!      !:!   :!:    :!:      :!:   
 :::: ::   ::    ::::     :: ::::   ::   :::  :::: ::    ::     ::       ::   
 :: :  :   :       :      : :: ::    :   : :  :: : :    :       :        :       


General
Complete name                    : National.Geographic.America.Before.Columbus.2009.DiVERSiTY (1).avi
Format                           : AVI
Format/Info                      : Audio Video Interleave
File size                        : 1.23 GiB
Overall bit rate                 : 3 508 Kbps
Encoder                          : usagi
Source                           : NTSC.DVDR-0MNiDVD
Amazon link                      : http://www.amazon.com/National-Geographic-America-Before-Columbus/dp/B0032LV4LS
IMDb                             : http://www.imdb.com/title/tt1552976/

Video
ID                               : 0
Format                           : MPEG-4 Visual
Format profile                   : Advanced Simple@L5
Format settings, BVOP            : 2
Format settings, QPel            : No
Format settings, GMC             : No warppoints
Format settings, Matrix          : Default (H.263)
Codec ID                         : XVID
Codec ID/Hint                    : XviD
Bit rate                         : 3 052 Kbps
Width                            : 720 pixels
Height                           : 400 pixels
Display aspect ratio             : 16:9
Frame rate                       : 25.000 fps
Color space                      : YUV
Chroma subsampling               : 4:2:0
Bit depth                        : 8 bits
Scan type                        : Progressive
Compression mode                 : Lossy
Bits/(Pixel*Frame)               : 0.424
Stream size                      : 1.07 GiB (87%)
Writing library                  : XviD 1.2.1 (UTC 2008-12-04)

Audio
ID                               : 1
Format                           : AC-3
Format/Info                      : Audio Coding 3
Mode extension                   : CM (complete main)
Codec ID                         : 2000
Bit rate mode                    : Constant
Bit rate                         : 448 Kbps
Channel(s)                       : 2 channels
Channel positions                : Front: L R
Sampling rate                    : 48.0 KHz
Bit depth                        : 16 bits
Compression mode                 : Lossy
Stream size                      : 160 MiB (13%)
Alignment                        : Aligned on interleaves
Interleave, duration             : 64 ms (1.60 video frames)
Interleave, preload duration     : 192 ms
Title                            : VTS_02_1 T80 2_0ch 224Kbps DELAY 0ms_new

Plot
History books traditionally depict the pre-Columbus Americas as a pristine wilderness 
where small native villages lived in harmony with nature. But scientific evidence tells a very different story: 
When Columbus stepped ashore in 1492, millions of people were already living there. 
America wasn't exactly a "New World," but a very old one whose inhabitants had built a vast infrastructure of cities, 
orchards, canals and causeways. But after Columbus set foot in the Americas, an endless wave of explorers, 
conquistadors and settlers arrived, and with each of their ships came a Noah's Ark of plants, animalsand disease. 
In the first 100 years of contact, entire civilizations were wiped out and the landscape was changed forever. 

National Geographic embarks on an expedition into the mysterious world of ancient American history 
to shed a different light on the history of the Americas.


LOOKING FOR : Untouched DVD-R's, DVD Screeners, Early Releases DVD's, CAM's, 
and good quality LINE audio. 
Contact DiVERSiTY and let us know.  
diversity at hushmail dot com   



Greets
To Everyone who makes p2p possible...... Thanks.